<svg width="395" height="395" viewBox="0 0 395 395" fill="none" xmlns="http://www.w3.org/2000/svg">
<circle cx="197.5" cy="197.5" r="197.5" fill="#3B82F6"/>
<path d="M173.169 105.604L161.411 105.005" stroke="white" stroke-width="8"/>
<path d="M173.169 105.604L185.266 105.95" stroke="white" stroke-width="8"/>
<path d="M161.41 105.005L150.145 104.163" stroke="white" stroke-width="8"/>
<path d="M185.266 105.95L197.537 106.038" stroke="white" stroke-width="8"/>
<path d="M221.938 105.435L233.738 104.754L245.062 103.835" stroke="white" stroke-width="8"/>
<path d="M255.766 102.694L265.719 101.346" stroke="white" stroke-width="8"/>
<path d="M242.771 65.5522L251.718 66.3492" stroke="white" stroke-width="8"/>
<path d="M274.808 99.8157L282.939 98.1245" stroke="white" stroke-width="8"/>
<path d="M223.981 64.445L214.278 64.139L204.459 64L194.595 64.0288L184.755 64.2248L175.008 64.5878" stroke="white" stroke-width="8"/>
<path d="M165.427 65.1157L156.075 65.8067" stroke="white" stroke-width="8"/>
<path d="M299.372 76.006L294.662 74.2413L289.136 72.5894" stroke="white" stroke-width="8"/>
<path d="M282.864 71.0606L275.916 69.6655" stroke="white" stroke-width="8"/>
<path d="M268.359 68.4111L260.271 67.3037" stroke="white" stroke-width="8"/>
<path d="M290.033 96.2979L282.938 98.1244" stroke="white" stroke-width="8"/>
<path d="M307.148 88.1498L308.541 86.0279L308.806 83.9186L307.973 81.8438" stroke="white" stroke-width="8"/>
<path d="M98.2436 76.624L94.2125 78.5184L91.124 80.4938" stroke="white" stroke-width="8"/>
<path d="M111.186 69.3159L112.459 69.2432L113.757 69.7932L114.948 70.9104L115.919 72.4857L115.996 72.7099" stroke="white" stroke-width="8"/>
<path d="M88.2397 95.5384L88.4104 94.9399" stroke="white" stroke-width="8"/>
<path d="M300.104 124.056L292.488 162.485" stroke="white" stroke-width="8"/>
<g filter="url(#filter0_d_9_97)">
<path d="M308.128 96.5615L306.662 98.7603L304.078 100.946L300.375 103.096L295.555 105.183L289.642 107.184L282.67 109.072L274.7 110.82L265.799 112.405L256.064 113.802L245.6 114.991L234.529 115.954L222.985 116.673L211.121 117.139L199.083 117.342L187.033 117.28L175.133 116.954L163.53 116.369L152.379 115.534L141.818 114.464L131.973 113.175L122.951 111.688L114.851 110.023L107.751 108.207L101.709 106.263L96.7661 104.219L92.9467 102.099L90.257 99.9297L88.6958 97.7348" stroke="white" stroke-width="8" shape-rendering="crispEdges"/>
</g>
<path d="M308.366 93.9487L308.502 94.3734" stroke="white" stroke-width="8"/>
<path d="M123.298 109.434L133.619 111.772L169.077 115.28L209.174 115.827L247.513 113.305L278.188 108.203L281.598 106.99" stroke="white" stroke-width="8"/>
<path d="M300.896 92.3411L304.602 90.2622" stroke="white" stroke-width="8"/>
<path d="M307.973 81.8437L306.087 79.8218" stroke="white" stroke-width="8"/>
<path d="M115.996 72.7099L112.958 72.1377" stroke="white" stroke-width="8"/>
<path d="M306.087 79.8219L303.201 77.8701" stroke="white" stroke-width="8"/>
<path d="M300.896 92.3408L296.031 94.3612L290.033 96.2975" stroke="white" stroke-width="8"/>
<path d="M274.808 99.8154L265.718 101.346" stroke="white" stroke-width="8"/>
<path d="M147.027 66.6571L156.075 65.8066" stroke="white" stroke-width="8"/>
<path d="M233.504 64.917L242.771 65.5526" stroke="white" stroke-width="8"/>
<path d="M233.503 64.9171L223.98 64.4453" stroke="white" stroke-width="8"/>
<path d="M175.008 64.5879L165.427 65.1158" stroke="white" stroke-width="8"/>
<path d="M251.718 66.3491L260.271 67.3034" stroke="white" stroke-width="8"/>
<path d="M268.359 68.4111L275.915 69.6657" stroke="white" stroke-width="8"/>
<path d="M303.201 77.8699L299.372 76.0054" stroke="white" stroke-width="8"/>
<path d="M289.135 72.5888L282.863 71.0605" stroke="white" stroke-width="8"/>
<path d="M103.147 74.8257L98.2437 76.6243" stroke="white" stroke-width="8"/>
<path d="M108.86 73.135L112.958 72.1377" stroke="white" stroke-width="8"/>
<path d="M89.0342 82.5347L88 84.6218" stroke="white" stroke-width="8"/>
<path d="M89.0342 82.5349L91.1242 80.4941" stroke="white" stroke-width="8"/>
<path d="M88.063 86.7368L89.2628 88.8564" stroke="white" stroke-width="8"/>
<path d="M91.6255 90.9585L95.1568 93.0191L99.8566 95.0139L105.704 96.9157L112.661 98.6992L120.67 100.339L129.651 101.811L139.515 103.092L150.146 104.163" stroke="white" stroke-width="8"/>
<path d="M197.537 106.038L209.817 105.865L221.938 105.435" stroke="white" stroke-width="8"/>
<path d="M245.061 103.835L255.765 102.693" stroke="white" stroke-width="8"/>
<path d="M299.864 81.8726L300.551 83.7912" stroke="white" stroke-width="8"/>
<path d="M299.864 81.8728L298.198 80" stroke="white" stroke-width="8"/>
<path d="M121.935 73.3886L119.095 72.855" stroke="white" stroke-width="8"/>
<path d="M298.198 80.0001L295.6 78.1895" stroke="white" stroke-width="8"/>
<path d="M300.222 85.7388L298.851 87.6944L296.42 89.638" stroke="white" stroke-width="8"/>
<path d="M292.925 91.5479L288.371 93.4007" stroke="white" stroke-width="8"/>
<path d="M292.925 91.5479L296.42 89.6382" stroke="white" stroke-width="8"/>
<path d="M288.371 93.4009L282.785 95.174L276.202 96.8441L268.681 98.3882L260.292 99.7838" stroke="white" stroke-width="8"/>
<path d="M101.93 78.7915L105.594 77.0322" stroke="white" stroke-width="8"/>
<path d="M101.929 78.791L99.146 80.6227" stroke="white" stroke-width="8"/>
<path d="M164.562 103.114L154.217 102.348" stroke="white" stroke-width="8"/>
<path d="M164.562 103.114L175.35 103.658" stroke="white" stroke-width="8"/>
<path d="M145.601 68.3228L148.439 68.8283" stroke="white" stroke-width="8"/>
<path d="M145.601 68.3224L150.638 67.7325L159.048 66.9355" stroke="white" stroke-width="8"/>
<path d="M204.113 65.2407L213.262 65.3713" stroke="white" stroke-width="8"/>
<path d="M204.112 65.2407L194.919 65.2677" stroke="white" stroke-width="8"/>
<path d="M159.048 66.9355L167.749 66.2876" stroke="white" stroke-width="8"/>
<path d="M231.169 66.1011L239.792 66.6971" stroke="white" stroke-width="8"/>
<path d="M231.169 66.1009L222.301 65.6582" stroke="white" stroke-width="8"/>
<path d="M239.792 66.6973L248.109 67.4444" stroke="white" stroke-width="8"/>
<path d="M222.301 65.6588L213.261 65.3716" stroke="white" stroke-width="8"/>
<path d="M194.919 65.2676L185.75 65.4515L176.671 65.7921L167.75 66.2874" stroke="white" stroke-width="8"/>
<path d="M248.109 67.4443L256.051 68.3381L263.551 69.3744L270.545 70.5475" stroke="white" stroke-width="8"/>
<path d="M295.6 78.1895L292.12 76.4572L287.814 74.8152L282.739 73.2761L276.962 71.8503L270.544 70.5474" stroke="white" stroke-width="8"/>
<path d="M110.078 75.3594L105.594 77.0322" stroke="white" stroke-width="8"/>
<path d="M115.322 73.7848L119.095 72.855" stroke="white" stroke-width="8"/>
<path d="M97.2934 82.5122L96.4219 84.4413" stroke="white" stroke-width="8"/>
<path d="M97.2935 82.5124L99.1459 80.623" stroke="white" stroke-width="8"/>
<path d="M96.5659 86.3926L97.7594 88.345L100.022 90.2787L103.356 92.1707L107.759 93.9991L113.206 95.7397L119.662 97.3696L127.072 98.8662L135.359 100.208L144.443 101.375L154.217 102.348" stroke="white" stroke-width="8"/>
<path d="M175.35 103.658L186.441 103.973L197.688 104.052L208.945 103.895L220.058 103.504L230.884 102.886L241.284 102.05L251.126 101.011L260.293 99.7837" stroke="white" stroke-width="8"/>
<path d="M144.174 66.9884L147.027 66.6572" stroke="white" stroke-width="8"/>
<path d="M308.806 83.9185L308.608 91.9626L308.341 94.156L306.949 96.3622L304.407 98.5584L300.708 100.72L295.853 102.82L289.868 104.833L282.79 106.732L274.679 108.489L265.611 110.08L255.683 111.48L245.006 112.667L233.711 113.621L221.942 114.328L209.852 114.775L197.604 114.955L185.365 114.864L173.299 114.503L161.571 113.88L150.334 113.005L139.729 111.892L129.889 110.56L120.929 109.03L112.938 107.325L105.996 105.471L100.16 103.494L95.4687 101.42L91.9427 99.2773L89.5827 97.0911L88.3823 94.8873" stroke="white" stroke-width="8"/>
<path d="M108.638 73.2009L108.662 72.8642L109.191 71.22L110.059 69.9977L111.186 69.3158L139.84 64.5452L141.119 64.4678L142.417 64.997L143.603 66.0792L144.563 67.609L144.639 67.8271" stroke="white" stroke-width="8"/>
<path d="M115.996 72.7099L144.639 67.8271" stroke="white" stroke-width="8"/>
<path d="M88.3818 94.8877L88.0629 86.7368L88 84.6221" stroke="white" stroke-width="8"/>
<path d="M261.811 306.553L260.707 309.063L258.989 311.535L256.669 313.943L253.758 316.261L250.279 318.464L246.257 320.525L241.732 322.42L236.743 324.126L231.346 325.62L225.594 326.885L219.549 327.905L213.279 328.664L206.857 329.154L200.352 329.368L193.842 329.303L187.403 328.96L181.106 328.343L175.024 327.461L169.227 326.325L163.775 324.951L158.727 323.355L154.136 321.558L150.046 319.583L146.496 317.453L143.513 315.193L141.122 312.829L139.335 310.388L138.163 307.895L88.6956 97.7351L88.2397 95.5391" stroke="white" stroke-width="8"/>
<path d="M308.502 94.374L308.128 96.5617L261.812 306.553" stroke="white" stroke-width="8"/>
<path d="M231.585 179.127L240.808 178.343L267.216 172.682L283.874 165.114L286.519 161.055L293.041 128.549" stroke="white" stroke-width="8"/>
<path d="M300.103 124.056L298.889 125.18L295.325 127.457L290.707 129.666L285.059 131.782L278.415 133.776L270.835 135.621L262.383 137.292L253.151 138.764L243.237 140.016L238.195 140.504L231.211 181.309" stroke="white" stroke-width="8"/>
<path d="M286.518 161.055L292.488 162.485L290.443 164.626L287.116 167.057L282.837 169.411L277.629 171.661L271.526 173.779L264.585 175.736L256.864 177.506L248.448 179.064L239.426 180.387L231.211 181.309" stroke="white" stroke-width="8"/>
<path d="M307.148 88.1494L304.602 90.2619" stroke="white" stroke-width="8"/>
<path d="M103.147 74.8258L108.86 73.1353" stroke="white" stroke-width="8"/>
<path d="M89.2632 88.856L91.6254 90.9586" stroke="white" stroke-width="8"/>
<path d="M121.936 73.3884L148.439 68.8276" stroke="white" stroke-width="8"/>
<path d="M300.551 83.7915L300.222 85.7388" stroke="white" stroke-width="8"/>
<path d="M110.078 75.3591L115.323 73.7847" stroke="white" stroke-width="8"/>
<path d="M96.4219 84.4414L96.5662 86.3927" stroke="white" stroke-width="8"/>
<defs>
<filter id="filter0_d_9_97" x="81.436" y="94.3423" width="234.02" height="35" filterUnits="userSpaceOnUse" color-interpolation-filters="sRGB">
<feFlood flood-opacity="0" result="BackgroundImageFix"/>
<feColorMatrix in="SourceAlpha" type="matrix" values="0 0 0 0 0 0 0 0 0 0 0 0 0 0 0 0 0 0 127 0" result="hardAlpha"/>
<feOffset dy="4"/>
<feGaussianBlur stdDeviation="2"/>
<feComposite in2="hardAlpha" operator="out"/>
<feColorMatrix type="matrix" values="0 0 0 0 0 0 0 0 0 0 0 0 0 0 0 0 0 0 0.25 0"/>
<feBlend mode="normal" in2="BackgroundImageFix" result="effect1_dropShadow_9_97"/>
<feBlend mode="normal" in="SourceGraphic" in2="effect1_dropShadow_9_97" result="shape"/>
</filter>
</defs>
</svg>
